<svg width="35" height="35" viewBox="0 0 35 35" fill="none" xmlns="http://www.w3.org/2000/svg">
<path d="M17.5 4.375C17.5 4.14294 17.4078 3.92038 17.2437 3.75628C17.0796 3.59219 16.8571 3.5 16.625 3.5C16.3929 3.5 16.1704 3.59219 16.0063 3.75628C15.8422 3.92038 15.75 4.14294 15.75 4.375V15.75H4.375C4.14294 15.75 3.92038 15.8422 3.75628 16.0063C3.59219 16.1704 3.5 16.3929 3.5 16.625C3.5 16.8571 3.59219 17.0796 3.75628 17.2437C3.92038 17.4078 4.14294 17.5 4.375 17.5H15.75V28.875C15.75 29.1071 15.8422 29.3296 16.0063 29.4937C16.1704 29.6578 16.3929 29.75 16.625 29.75C16.8571 29.75 17.0796 29.6578 17.2437 29.4937C17.4078 29.3296 17.5 29.1071 17.5 28.875V17.5H28.875C29.1071 17.5 29.3296 17.4078 29.4937 17.2437C29.6578 17.0796 29.75 16.8571 29.75 16.625C29.75 16.3929 29.6578 16.1704 29.4937 16.0063C29.3296 15.8422 29.1071 15.75 28.875 15.75H17.5V4.375Z" fill="#699BF7"/>
</svg>
