<svg width="27" height="26" viewBox="0 0 27 26" fill="none" xmlns="http://www.w3.org/2000/svg">
<path d="M13.5 24C15.7745 24 17.9979 23.3549 19.8891 22.1462C21.7802 20.9375 23.2542 19.2195 24.1246 17.2095C24.995 15.1995 25.2228 12.9878 24.779 10.854C24.3353 8.72022 23.24 6.76021 21.6317 5.22183C20.0234 3.68345 17.9743 2.6358 15.7435 2.21137C13.5128 1.78693 11.2005 2.00477 9.09914 2.83733C6.99779 3.66989 5.20174 5.07979 3.9381 6.88873C2.67446 8.69767 2 10.8244 2 13C2 14.8187 2.46 16.5334 3.27778 18.0441L2 24L8.22661 22.7778C9.80594 23.56 11.5999 24 13.5 24Z" stroke="#309DFE" stroke-width="3" stroke-linecap="round" stroke-linejoin="round"/>
</svg>
