<svg width="27" height="27" viewBox="0 0 27 27" fill="none" xmlns="http://www.w3.org/2000/svg">
<path d="M4.55556 13.5H2L13.5 2L25 13.5H22.4444M4.55556 13.5V22.4444C4.55556 23.1222 4.8248 23.7722 5.30406 24.2515C5.78332 24.7308 6.43334 25 7.11111 25H19.8889C20.5667 25 21.2167 24.7308 21.6959 24.2515C22.1752 23.7722 22.4444 23.1222 22.4444 22.4444V13.5" stroke="black" stroke-width="2.91667" stroke-linecap="round" stroke-linejoin="round"/>
<path d="M9.6665 25.0001V17.3334C9.6665 16.6556 9.93575 16.0056 10.415 15.5263C10.8943 15.0471 11.5443 14.7778 12.2221 14.7778H14.7776C15.4554 14.7778 16.1054 15.0471 16.5847 15.5263C17.0639 16.0056 17.3332 16.6556 17.3332 17.3334V25.0001" stroke="black" stroke-width="2.91667" stroke-linecap="round" stroke-linejoin="round"/>
</svg>
