<svg width="28" height="28" viewBox="0 0 28 28" fill="none" xmlns="http://www.w3.org/2000/svg">
<path d="M9.33333 12.8333C9.33333 12.5239 9.45624 12.2271 9.67504 12.0083C9.89383 11.7895 10.1906 11.6666 10.5 11.6666H17.5C17.8094 11.6666 18.1062 11.7895 18.325 12.0083C18.5437 12.2271 18.6667 12.5239 18.6667 12.8333C18.6667 13.1427 18.5437 13.4394 18.325 13.6582C18.1062 13.877 17.8094 13.9999 17.5 13.9999H10.5C10.1906 13.9999 9.89383 13.877 9.67504 13.6582C9.45624 13.4394 9.33333 13.1427 9.33333 12.8333ZM10.5 16.3333C10.1906 16.3333 9.89383 16.4562 9.67504 16.675C9.45624 16.8938 9.33333 17.1905 9.33333 17.4999C9.33333 17.8094 9.45624 18.1061 9.67504 18.3249C9.89383 18.5437 10.1906 18.6666 10.5 18.6666H15.1667C15.4761 18.6666 15.7728 18.5437 15.9916 18.3249C16.2104 18.1061 16.3333 17.8094 16.3333 17.4999C16.3333 17.1905 16.2104 16.8938 15.9916 16.675C15.7728 16.4562 15.4761 16.3333 15.1667 16.3333H10.5ZM2.33333 13.9999C2.33391 11.4421 3.17506 8.95541 4.72731 6.92246C6.27956 4.88952 8.45689 3.42303 10.9242 2.74869C13.3915 2.07436 16.0121 2.22954 18.3825 3.19037C20.753 4.1512 22.742 5.86441 24.0435 8.06635C25.345 10.2683 25.8867 12.8369 25.5854 15.3769C25.2841 17.9169 24.1565 20.2875 22.376 22.1238C20.5955 23.9602 18.2608 25.1605 15.7313 25.5401C13.2019 25.9197 10.6177 25.4575 8.37666 24.2246L3.84066 25.6059C3.63834 25.6676 3.42307 25.673 3.21788 25.6218C3.01268 25.5705 2.82529 25.4644 2.67574 25.3149C2.52618 25.1653 2.4201 24.9779 2.36883 24.7727C2.31756 24.5675 2.32303 24.3523 2.38466 24.1499L3.76599 19.6069C2.82322 17.8887 2.33038 15.9599 2.33333 13.9999ZM14 4.66661C12.3432 4.66647 10.7162 5.10736 9.28614 5.944C7.85609 6.78064 6.67452 7.98288 5.86279 9.42722C5.05106 10.8716 4.63844 12.5059 4.66729 14.1625C4.69615 15.8191 5.16545 17.4381 6.02699 18.8533C6.11251 18.9939 6.16733 19.1509 6.18784 19.3142C6.20835 19.4775 6.19409 19.6432 6.14599 19.8006L5.25233 22.7383L8.18533 21.8446C8.3432 21.7965 8.50948 21.7825 8.67318 21.8034C8.83688 21.8243 8.99429 21.8797 9.13499 21.9659C10.3651 22.7169 11.7524 23.1729 13.1882 23.298C14.6239 23.4232 16.0692 23.2141 17.4106 22.6872C18.7521 22.1603 19.9533 21.3299 20.9202 20.2611C21.887 19.1923 22.5932 17.9141 22.9833 16.5267C23.3735 15.1393 23.4371 13.6804 23.1691 12.2643C22.901 10.8482 22.3087 9.51342 21.4385 8.36456C20.5683 7.2157 19.4439 6.28397 18.1534 5.6424C16.8628 5.00082 15.4412 4.66683 14 4.66661Z" fill="black"/>
</svg>
