<svg width="35" height="35" viewBox="0 0 35 35" fill="none" xmlns="http://www.w3.org/2000/svg">
<path d="M25.8854 4.375C27.1424 4.375 28.348 4.87435 29.2368 5.76319C30.1257 6.65204 30.625 7.85757 30.625 9.11458V19.1465C30.6246 20.0162 30.279 20.8502 29.664 21.4652L21.4667 29.664C21.162 29.9686 20.8002 30.2103 20.4021 30.3752C20.004 30.5401 19.5774 30.625 19.1465 30.625H9.11458C7.85757 30.625 6.65204 30.1257 5.76319 29.2368C4.87435 28.348 4.375 27.1424 4.375 25.8854V9.11458C4.375 7.85757 4.87435 6.65204 5.76319 5.76319C6.65204 4.87435 7.85757 4.375 9.11458 4.375H25.8854ZM25.8854 6.5625H9.11458C8.43773 6.5625 7.7886 6.83138 7.30999 7.30999C6.83138 7.7886 6.5625 8.43773 6.5625 9.11458V25.8854C6.5625 27.2942 7.70583 28.4375 9.11458 28.4375H18.9583V23.6979C18.9583 22.4873 19.4214 21.3225 20.2529 20.4426C21.0843 19.5626 22.2209 19.0342 23.4296 18.9656L23.6979 18.9583H28.4375V9.11458C28.4375 8.43773 28.1686 7.7886 27.69 7.30999C27.2114 6.83138 26.5623 6.5625 25.8854 6.5625ZM26.8902 21.1458H23.6979C23.0572 21.1459 22.4399 21.3869 21.9688 21.8211C21.4976 22.2553 21.2069 22.8508 21.1546 23.4894L21.1458 23.6979V26.8902L26.8902 21.1458Z" fill="black"/>
</svg>
