<svg width="27" height="27" viewBox="0 0 27 27" fill="none" xmlns="http://www.w3.org/2000/svg">
<path d="M2 22.4166C2 20.8695 2.61458 19.3858 3.70854 18.2918C4.80251 17.1978 6.28624 16.5833 7.83333 16.5833H19.5C21.0471 16.5833 22.5308 17.1978 23.6248 18.2918C24.7188 19.3858 25.3333 20.8695 25.3333 22.4166C25.3333 23.1901 25.026 23.932 24.4791 24.479C23.9321 25.026 23.1902 25.3333 22.4167 25.3333H4.91667C4.14312 25.3333 3.40125 25.026 2.85427 24.479C2.30729 23.932 2 23.1901 2 22.4166Z" stroke="black" stroke-width="2.5" stroke-linejoin="round"/>
<path d="M13.6667 10.75C16.083 10.75 18.0417 8.79125 18.0417 6.375C18.0417 3.95875 16.083 2 13.6667 2C11.2505 2 9.29175 3.95875 9.29175 6.375C9.29175 8.79125 11.2505 10.75 13.6667 10.75Z" stroke="black" stroke-width="2.5"/>
</svg>
