<svg width="28" height="28" viewBox="0 0 28 28" fill="none" xmlns="http://www.w3.org/2000/svg">
<path d="M9.45321 9.45321C10.3956 8.51084 10.925 7.23271 10.925 5.9C10.925 4.56729 10.3956 3.28916 9.45321 2.34679C8.51084 1.40442 7.23271 0.875 5.9 0.875C4.56729 0.875 3.28916 1.40442 2.34679 2.34679C1.40442 3.28916 0.875 4.56729 0.875 5.9C0.875 7.23271 1.40442 8.51084 2.34679 9.45321C3.28916 10.3956 4.56729 10.925 5.9 10.925C7.23271 10.925 8.51084 10.3956 9.45321 9.45321ZM3.67851 8.12149C3.08933 7.53232 2.75833 6.73322 2.75833 5.9C2.75833 5.06678 3.08933 4.26768 3.67851 3.67851C4.26768 3.08933 5.06678 2.75833 5.9 2.75833C6.73322 2.75833 7.53232 3.08933 8.12149 3.67851C8.71067 4.26768 9.04167 5.06678 9.04167 5.9C9.04167 6.73322 8.71067 7.53232 8.12149 8.12149C7.53232 8.71067 6.73322 9.04167 5.9 9.04167C5.06678 9.04167 4.26768 8.71067 3.67851 8.12149Z" fill="#010101" stroke="black" stroke-width="0.25"/>
<path d="M18.7526 26.4174C19.3295 25.9117 19.7167 25.2266 19.8537 24.475L24.7861 26.6662C25.0537 26.785 25.3467 26.8352 25.6386 26.8121C25.9305 26.789 26.212 26.6934 26.4576 26.534C26.7032 26.3745 26.905 26.1562 27.0449 25.899C27.1847 25.6417 27.2581 25.3536 27.2583 25.0608V25.0607V12.8727V12.8727C27.2582 12.5797 27.1848 12.2913 27.0449 12.0338C26.905 11.7764 26.7029 11.558 26.4571 11.3984C26.2113 11.2389 25.9295 11.1434 25.6374 11.1205C25.3453 11.0976 25.052 11.1481 24.7844 11.2673L19.8537 13.4584C19.7167 12.7068 19.3295 12.0217 18.7526 11.5161C18.1339 10.9738 17.3393 10.675 16.5167 10.675H15.7H4.26667C3.36714 10.675 2.50446 11.0324 1.8684 11.6684C1.23234 12.3045 0.875 13.1672 0.875 14.0667V23.8667C0.875 24.7662 1.23234 25.6289 1.8684 26.265C2.50446 26.901 3.36714 27.2584 4.26667 27.2584H16.5167C17.3393 27.2585 18.1339 26.9596 18.7526 26.4174ZM25.375 13.0667V24.8683L19.9083 22.438V15.4955L25.375 13.0667ZM2.75833 23.8667V14.0667C2.75833 13.6667 2.91725 13.283 3.20011 13.0002C3.48298 12.7173 3.86663 12.5584 4.26667 12.5584H16.5167C16.9167 12.5584 17.3004 12.7173 17.5832 13.0002C17.8661 13.283 18.025 13.6667 18.025 14.0667V23.8667C18.025 24.2668 17.8661 24.6504 17.5832 24.9333C17.3004 25.2161 16.9167 25.375 16.5167 25.375H4.26667C3.86663 25.375 3.48298 25.2161 3.20011 24.9333C2.91725 24.6504 2.75833 24.2668 2.75833 23.8667Z" fill="#010101" stroke="black" stroke-width="0.25"/>
<path d="M15.7 10.925C17.0327 10.925 18.3108 10.3956 19.2532 9.45321C20.1956 8.51084 20.725 7.23271 20.725 5.9C20.725 4.56729 20.1956 3.28916 19.2532 2.34679C18.3108 1.40442 17.0327 0.875 15.7 0.875C14.3673 0.875 13.0891 1.40442 12.1468 2.34679C11.2044 3.28916 10.675 4.56729 10.675 5.9C10.675 7.23271 11.2044 8.51084 12.1468 9.45321C13.0891 10.3956 14.3673 10.925 15.7 10.925ZM12.5583 5.9C12.5583 5.06678 12.8893 4.26768 13.4785 3.67851C14.0677 3.08933 14.8668 2.75833 15.7 2.75833C16.5332 2.75833 17.3323 3.08933 17.9215 3.67851C18.5107 4.26768 18.8417 5.06678 18.8417 5.9C18.8417 6.73322 18.5107 7.53232 17.9215 8.12149C17.3323 8.71067 16.5332 9.04167 15.7 9.04167C14.8668 9.04167 14.0677 8.71067 13.4785 8.12149C12.8893 7.53232 12.5583 6.73322 12.5583 5.9Z" fill="#010101" stroke="black" stroke-width="0.25"/>
</svg>
