<svg width="27" height="26" viewBox="0 0 27 26" fill="none" xmlns="http://www.w3.org/2000/svg">
<path d="M7.75 2H4.875C4.1125 2 3.38123 2.28973 2.84207 2.80546C2.3029 3.32118 2 4.02065 2 4.75V21.25C2 21.9793 2.3029 22.6788 2.84207 23.1945C3.38123 23.7103 4.1125 24 4.875 24H22.125C22.8875 24 23.6188 23.7103 24.1579 23.1945C24.6971 22.6788 25 21.9793 25 21.25V7.2635C24.9998 6.53421 24.6968 5.83486 24.1576 5.31925L21.5299 2.80575C20.9908 2.28999 20.2597 2.00016 19.4973 2H17.8125M7.75 2V7.5C7.75 7.86467 7.90145 8.21441 8.17103 8.47227C8.44062 8.73013 8.80625 8.875 9.1875 8.875H16.375C16.7562 8.875 17.1219 8.73013 17.3915 8.47227C17.661 8.21441 17.8125 7.86467 17.8125 7.5V2M7.75 2H17.8125M6.3125 19.875V15.75C6.3125 15.3853 6.46395 15.0356 6.73353 14.7777C7.00312 14.5199 7.36875 14.375 7.75 14.375H19.25C19.6312 14.375 19.9969 14.5199 20.2665 14.7777C20.5361 15.0356 20.6875 15.3853 20.6875 15.75V19.875" stroke="#309DFE" stroke-width="3" stroke-linecap="round" stroke-linejoin="round"/>
</svg>
